PathFileType	4	(X/Y/Z)	/Users/itak/Documents/Research/Walk-IL/dataset/trc/00483_00167.trc
DataRate	CameraRate	NumFrames	NumMarkers	Units	OrigDataRate	OrigDataStartFrame	OrigNumFrames
100.000000	100.000000	4	53	mm	100.000000	524	599
Frame#	Time	RPSI			LPSI			L3			STRN			T10			C7			CLAV			RBAK			LBAK			LSHO			LUPA			LAEL			LAOL			LWTS			LWPS			LFRA			LIFD			LHPS			LHTS			RSHO			RUPA			RAEL			RAOL			RWTS			RWPS			RFRA			RIFD			RHTS			RHPS			RBHD			LFHD			RFHD			LBHD			LHIP			RHIP			RASI			LASI			LKNE			LTHI			LANK			LTIP			LTOE			LMT1			LMT5			LHEE			RKNE			RTHI			RANK			RTIP			RTOE			RMT1			RMT5			RHEE			
		X1	Y1	Z1	X2	Y2	Z2	X3	Y3	Z3	X4	Y4	Z4	X5	Y5	Z5	X6	Y6	Z6	X7	Y7	Z7	X8	Y8	Z8	X9	Y9	Z9	X10	Y10	Z10	X11	Y11	Z11	X12	Y12	Z12	X13	Y13	Z13	X14	Y14	Z14	X15	Y15	Z15	X16	Y16	Z16	X17	Y17	Z17	X18	Y18	Z18	X19	Y19	Z19	X20	Y20	Z20	X21	Y21	Z21	X22	Y22	Z22	X23	Y23	Z23	X24	Y24	Z24	X25	Y25	Z25	X26	Y26	Z26	X27	Y27	Z27	X28	Y28	Z28	X29	Y29	Z29	X30	Y30	Z30	X31	Y31	Z31	X32	Y32	Z32	X33	Y33	Z33	X34	Y34	Z34	X35	Y35	Z35	X36	Y36	Z36	X37	Y37	Z37	X38	Y38	Z38	X39	Y39	Z39	X40	Y40	Z40	X41	Y41	Z41	X42	Y42	Z42	X43	Y43	Z43	X44	Y44	Z44	X45	Y45	Z45	X46	Y46	Z46	X47	Y47	Z47	X48	Y48	Z48	X49	Y49	Z49	X50	Y50	Z50	X51	Y51	Z51	X52	Y52	Z52	X53	Y53	Z53	

525	5.24	-477.3079223632812	963.242431640625	-519.8247680664062	-472.0316772460938	964.3367919921875	-377.1172485351562	-488.9938354492188	1059.247802734375	-453.3640441894531	-755.6190795898438	1256.967529296875	-412.0230407714844	-469.2332153320312	1182.723266601562	-441.9883422851562	-533.6632080078125	1453.145385742188	-434.2192993164062	-716.5018310546875	1369.135986328125	-406.474853515625	-480.189697265625	1335.680297851562	-537.9784545898438	-489.6448364257812	1400.203979492188	-341.5272521972656	-583.2037963867188	1419.166015625	-253.9664611816406	-569.8762817382812	1305.136596679688	-154.7328643798828	-616.1566162109375	1101.83740234375	-96.06768798828125	-545.5888671875	1066.906372070312	-163.0627136230469	-745.6494140625	926.3286743164062	-122.5272445678711	-700.79736328125	901.7324829101562	-68.18165588378906	-656.4510498046875	1022.638061523438	-79.40376281738281	-794.2044067382812	776.6124267578125	-97.26940155029297	-727.8431396484375	830.4288940429688	-61.16016387939453	-782.9356689453125	851.1251220703125	-103.9451141357422	-613.53125	1431.536743164062	-586.2711181640625	-599.6393432617188	1377.835693359375	-666.3565063476562	-603.2999267578125	1102.555786132812	-758.1046142578125	-553.7855834960938	1074.823120117188	-720.2438354492188	-736.6959838867188	913.2340087890625	-727.6810913085938	-675.4301147460938	893.4424438476562	-790.326416015625	-614.9668579101562	1046.25830078125	-773.4696044921875	-764.7659912109375	761.6134643554688	-749.4024658203125	-767.5669555664062	822.2135620117188	-744.853759765625	-706.0133666992188	811.2035522460938	-793.2926635742188	-692.1455688476562	1652.88916015625	-488.678955078125	-783.3062133789062	1612.573974609375	-306.6297607421875	-815.858642578125	1621.602905273438	-432.9227600097656	-635.9523315429688	1650.353393554688	-319.9845886230469	-605.7968139648438	864.9874267578125	-256.04345703125	-602.30078125	863.1187744140625	-654.9904174804688	-702.5874633789062	906.670166015625	-586.866455078125	-705.0325317382812	903.4927368164062	-331.1269226074219	-650.89306640625	449.5093994140625	-292.6152648925781	-661.1207275390625	604.5225219726562	-271.7221069335938	-575.2194213867188	42.98943328857422	-306.6644897460938	-642.80078125	296.9139404296875	-282.3279724121094	-814.5648803710938	42.68093109130859	-362.0340270996094	-738.3800048828125	48.57357788085938	-394.4400939941406	-728.2177734375	46.50711822509766	-282.0263977050781	-534.8732299804688	48.2443733215332	-374.3503723144531	-657.74169921875	474.0504455566406	-646.9572143554688	-657.0419311523438	734.2007446289062	-664.4657592773438	-623.146728515625	46.65577697753906	-686.4573974609375	-665.5762329101562	335.3046264648438	-667.83154296875	-825.9773559570312	46.962646484375	-598.6304931640625	-756.9235229492188	50.71409225463867	-576.1270141601562	-758.3161010742188	47.70108795166016	-684.4846801757812	-552.0045776367188	38.14144134521484	-654.5267333984375	
526	5.25	-480.3045654296875	962.7448120117188	-521.2927856445312	-475.1958618164062	964.3221435546875	-378.6138916015625	-491.6103820800781	1058.318237304688	-455.4634399414062	-757.228759765625	1257.318359375	-414.4643859863281	-471.218505859375	1181.846801757812	-444.76318359375	-534.3822631835938	1452.534790039062	-437.2375793457031	-717.6250610351562	1369.342651367188	-408.9323425292969	-481.7186584472656	1334.766967773438	-541.1337280273438	-490.3564758300781	1399.47021484375	-344.7064208984375	-583.540283203125	1418.685180664062	-256.6518859863281	-569.847900390625	1304.266357421875	-157.7188110351562	-615.2359619140625	1100.476440429688	-99.45392608642578	-544.8463745117188	1066.479125976562	-167.2115783691406	-740.4967041015625	921.4263305664062	-123.4228286743164	-694.29541015625	898.506103515625	-69.48411560058594	-653.423828125	1020.4228515625	-82.01714324951172	-784.5240478515625	770.7017822265625	-96.21436309814453	-719.2207641601562	826.6461181640625	-61.47790908813477	-775.4432983398438	845.4185791015625	-103.7357940673828	-614.8635864257812	1431.116088867188	-589.179931640625	-601.6239013671875	1377.143188476562	-669.3085327148438	-606.8920288085938	1101.283935546875	-759.6925659179688	-557.2255859375	1073.808715820312	-721.9152221679688	-739.3724975585938	911.4776611328125	-728.1935424804688	-678.1856079101562	891.77294921875	-791.0217895507812	-618.4130859375	1044.881713867188	-774.82666015625	-766.6631469726562	759.6090698242188	-749.4646606445312	-769.9320068359375	820.3331298828125	-745.1991577148438	-708.3614501953125	809.39111328125	-793.6870727539062	-692.0167236328125	1652.981567382812	-491.2917785644531	-782.5556030273438	1613.494140625	-308.7789306640625	-815.5213623046875	1622.488891601562	-434.8020629882812	-635.0457153320312	1650.348388671875	-322.859619140625	-609.0186157226562	865.3460693359375	-257.4062194824219	-604.6580810546875	862.0692138671875	-656.287109375	-705.375244140625	905.7639770507812	-588.7068481445312	-708.300048828125	903.5361328125	-332.66259765625	-650.888671875	449.4532165527344	-293.620849609375	-662.3302001953125	604.261962890625	-272.7351989746094	-575.1632690429688	42.99731063842773	-306.7171020507812	-642.6333618164062	297.1517028808594	-282.9612731933594	-814.4612426757812	42.74544143676758	-362.0065307617188	-738.2864990234375	48.54840087890625	-394.5150451660156	-728.1515502929688	46.55361557006836	-282.1101379394531	-534.7797241210938	48.20948028564453	-374.3245544433594	-655.9893188476562	472.9183044433594	-647.8151245117188	-658.1795654296875	732.9086303710938	-665.6048583984375	-622.8226318359375	45.92561721801758	-686.0800170898438	-664.046142578125	334.3059997558594	-668.3463745117188	-826.057861328125	46.95477294921875	-598.5830078125	-756.9692993164062	50.67239379882812	-576.1309814453125	-758.21875	47.70283126831055	-684.6134643554688	-551.7698974609375	36.9759521484375	-654.029541015625	
527	5.26	-483.2065124511719	962.3751831054688	-522.7064819335938	-478.2564392089844	964.3211059570312	-380.0525207519531	-494.166015625	1057.48291015625	-457.5105285644531	-758.791748046875	1257.742309570312	-417.0210266113281	-473.133056640625	1181.050537109375	-447.466064453125	-535.0386962890625	1452.013549804688	-440.2357788085938	-718.7172241210938	1369.628295898438	-411.4844665527344	-483.139404296875	1333.933959960938	-544.2314453125	-491.0928039550781	1398.815551757812	-347.8136291503906	-583.9644775390625	1418.257690429688	-259.3302612304688	-569.9422607421875	1303.397094726562	-160.7423858642578	-614.2432861328125	1099.123901367188	-103.0148391723633	-544.1362915039062	1066.118286132812	-171.6677703857422	-735.0343627929688	916.575439453125	-124.3868637084961	-687.4091186523438	895.3973388671875	-71.00668334960938	-650.2118530273438	1018.236267089844	-84.82425689697266	-774.3153686523438	764.9785766601562	-95.15451812744141	-710.1279296875	823.05224609375	-61.9713134765625	-767.5173950195312	839.824462890625	-103.5405731201172	-616.0602416992188	1430.799560546875	-592.1156616210938	-603.4275512695312	1376.580200195312	-672.296630859375	-610.335205078125	1100.109008789062	-761.2388916015625	-560.5377807617188	1072.893920898438	-723.5335083007812	-741.8780517578125	909.8146362304688	-728.7395629882812	-680.7676391601562	890.2048950195312	-791.690185546875	-621.6980590820312	1043.598022460938	-776.1365356445312	-768.4096069335938	757.710693359375	-749.5701904296875	-772.1289672851562	818.555419921875	-745.6104125976562	-710.51025390625	807.693115234375	-794.098388671875	-691.7813720703125	1653.173950195312	-493.9711303710938	-781.733642578125	1614.536743164062	-311.0211486816406	-815.09375	1623.5029296875	-436.7895202636719	-634.0499267578125	1650.42138671875	-325.8117370605469	-612.2281494140625	865.6546630859375	-258.7972717285156	-606.83349609375	861.2619018554688	-657.6422119140625	-708.0615844726562	905.0296630859375	-590.5916748046875	-711.5178833007812	903.5670166015625	-334.2530517578125	-650.7905883789062	449.3829650878906	-294.7031860351562	-663.508544921875	603.9684448242188	-273.8127746582031	-575.1130981445312	43.01242065429688	-306.7715454101562	-642.405517578125	297.415771484375	-283.6405334472656	-814.349365234375	42.81551742553711	-361.9871826171875	-738.1856079101562	48.50844192504883	-394.6146545410156	-728.09033203125	46.61786651611328	-282.2169799804688	-534.6775512695312	48.18119812011719	-374.2987365722656	-654.297607421875	472.0548095703125	-648.7362670898438	-659.195068359375	731.7684326171875	-666.824951171875	-622.6205444335938	45.32756042480469	-685.8411254882812	-662.6248168945312	333.5448303222656	-668.9482421875	-826.1056518554688	46.95853424072266	-598.5609741210938	-757.0192260742188	50.64336776733398	-576.1478271484375	-758.1723022460938	47.7034912109375	-684.7313842773438	-551.6148071289062	36.01685333251953	-653.6976928710938	
528	5.27	-486.0055541992188	962.140380859375	-524.0558471679688	-481.1991882324219	964.3323974609375	-381.4153137207031	-496.655029296875	1056.76708984375	-459.493408203125	-760.3106079101562	1258.23876953125	-419.6719970703125	-474.974609375	1180.35205078125	-450.0893859863281	-535.646240234375	1451.589965820312	-443.2047424316406	-719.7844848632812	1369.992553710938	-414.1130676269531	-484.4595947265625	1333.192260742188	-547.2651977539062	-491.858154296875	1398.24951171875	-350.8379516601562	-584.483154296875	1417.89501953125	-261.991455078125	-570.1661376953125	1302.54248046875	-163.7911224365234	-613.1886596679688	1097.80419921875	-106.739501953125	-543.4812622070312	1065.855712890625	-176.4194793701172	-729.2866821289062	911.8275756835938	-125.4348068237305	-680.168212890625	892.4486083984375	-72.77935028076172	-646.830810546875	1016.113830566406	-87.81993103027344	-763.6041259765625	759.4932250976562	-94.15601348876953	-700.5916748046875	819.6853637695312	-62.69901657104492	-759.1860961914062	834.3921508789062	-103.3936004638672	-617.1339111328125	1430.594604492188	-595.0621948242188	-605.050048828125	1376.154541015625	-675.3033447265625	-613.6187133789062	1099.0390625	-762.740966796875	-563.6959228515625	1072.09326171875	-725.0909423828125	-744.2136840820312	908.2601928710938	-729.3097534179688	-683.171142578125	888.7506713867188	-792.32568359375	-624.815185546875	1042.422607421875	-777.3934936523438	-770.0150146484375	755.9393310546875	-749.7042236328125	-774.1549072265625	816.8944702148438	-746.0625	-712.4666137695312	806.1229858398438	-794.5113525390625	-691.4446411132812	1653.466674804688	-496.7079467773438	-780.8479614257812	1615.702758789062	-313.3470153808594	-814.5914916992188	1624.650268554688	-438.8885192871094	-632.9765625	1650.574951171875	-328.8278503417969	-615.4166870117188	865.9066772460938	-260.2053833007812	-608.8258056640625	860.7357788085938	-659.0518188476562	-710.6339111328125	904.486572265625	-592.5032348632812	-714.673583984375	903.5909423828125	-335.8927307128906	-650.6043701171875	449.294189453125	-295.8430480957031	-664.6490478515625	603.6400756835938	-274.9323425292969	-575.0687255859375	43.03328323364258	-306.8242797851562	-642.1184692382812	297.69873046875	-284.3535766601562	-814.228271484375	42.88907623291016	-361.9796142578125	-738.0797729492188	48.45252990722656	-394.7379455566406	-728.0375366210938	46.70420074462891	-282.3504333496094	-534.5684814453125	48.15524291992188	-374.2753295898438	-652.7074584960938	471.481689453125	-649.7517700195312	-660.0894165039062	730.8565063476562	-668.1513671875	-622.510009765625	44.84225463867188	-685.7536010742188	-661.3251342773438	333.0254516601562	-669.6712036132812	-826.0966796875	46.97705459594727	-598.5625	-757.0425415039062	50.63752746582031	-576.1998901367188	-758.1515502929688	47.69100952148438	-684.8591918945312	-551.5142822265625	35.24688720703125	-653.5368041992188	
